# This file uses centimeters as units for non-parametric coordinates.

mtllib worker.mtl
g default1
v 0.383856 1.418530 -0.230932
v 0.384093 0.681491 0.735143
v 0.778217 1.418620 -0.230932
v 0.778458 0.681577 0.735143
v 0.778293 1.189560 -0.485339
v 0.778530 0.452520 0.480736
v 0.383928 1.189473 -0.485339
v 0.384165 0.452430 0.480736
v -0.435895 0.535877 0.329090
v 0.381406 0.535877 0.329090
v -0.435895 1.594855 0.329090
v 0.381406 1.594855 0.329090
v -0.435895 1.594855 -0.488212
v 0.381406 1.594855 -0.488212
v -0.435895 0.535877 -0.488212
v 0.381406 0.535877 -0.488212
v -0.852180 1.418530 -0.230932
v -0.851943 0.681491 0.735143
v -0.457816 1.418620 -0.230932
v -0.457579 0.681577 0.735143
v -0.457743 1.189560 -0.485339
v -0.457502 0.452520 0.480736
v -0.852108 1.189473 -0.485339
v -0.851867 0.452430 0.480736
v -0.571117 -0.556656 0.329090
v -0.139519 -0.556656 0.329090
v -0.571117 0.529828 0.329090
v -0.139519 0.529828 0.329090
v -0.571117 0.529828 -0.488212
v -0.139519 0.529828 -0.488212
v -0.571117 -0.556656 -0.488212
v -0.139519 -0.556656 -0.488212
v 0.004579 -0.556656 0.329090
v 0.436176 -0.556656 0.329090
v 0.004579 0.529828 0.329090
v 0.436176 0.529828 0.329090
v 0.004579 0.529828 -0.488212
v 0.436176 0.529828 -0.488212
v 0.004579 -0.556656 -0.488212
v 0.436176 -0.556656 -0.488212
v -0.499190 1.568209 0.397939
v 0.444700 1.568209 0.397939
v -0.499190 2.277605 0.397939
v 0.444700 2.277605 0.397939
v -0.499190 2.277605 -0.557061
v 0.444700 2.277605 -0.557061
v -0.499190 1.568209 -0.557061
v 0.444700 1.568209 -0.557061
vt 0.375000 0.000000
vt 0.625000 0.000000
vt 0.625000 0.250000
vt 0.375000 0.250000
vt 0.625000 0.500000
vt 0.375000 0.500000
vt 0.625000 0.750000
vt 0.375000 0.750000
vt 0.625000 1.000000
vt 0.375000 1.000000
vt 0.875000 0.000000
vt 0.875000 0.250000
vt 0.125000 0.000000
vt 0.125000 0.250000
vt 0.375000 0.000000
vt 0.625000 0.000000
vt 0.625000 0.250000
vt 0.375000 0.250000
vt 0.625000 0.500000
vt 0.375000 0.500000
vt 0.625000 0.750000
vt 0.375000 0.750000
vt 0.625000 1.000000
vt 0.375000 1.000000
vt 0.875000 0.000000
vt 0.875000 0.250000
vt 0.125000 0.000000
vt 0.125000 0.250000
vt 0.375000 0.000000
vt 0.625000 0.000000
vt 0.625000 0.250000
vt 0.375000 0.250000
vt 0.625000 0.500000
vt 0.375000 0.500000
vt 0.625000 0.750000
vt 0.375000 0.750000
vt 0.625000 1.000000
vt 0.375000 1.000000
vt 0.875000 0.000000
vt 0.875000 0.250000
vt 0.125000 0.000000
vt 0.125000 0.250000
vt 0.375000 0.000000
vt 0.625000 0.000000
vt 0.625000 0.250000
vt 0.375000 0.250000
vt 0.625000 0.500000
vt 0.375000 0.500000
vt 0.625000 0.750000
vt 0.375000 0.750000
vt 0.625000 1.000000
vt 0.375000 1.000000
vt 0.875000 0.000000
vt 0.875000 0.250000
vt 0.125000 0.000000
vt 0.125000 0.250000
vt 0.375000 0.000000
vt 0.625000 0.000000
vt 0.625000 0.250000
vt 0.375000 0.250000
vt 0.625000 0.500000
vt 0.375000 0.500000
vt 0.625000 0.750000
vt 0.375000 0.750000
vt 0.625000 1.000000
vt 0.375000 1.000000
vt 0.875000 0.000000
vt 0.875000 0.250000
vt 0.125000 0.000000
vt 0.125000 0.250000
vt 0.375000 0.000000
vt 0.625000 0.000000
vt 0.625000 0.250000
vt 0.375000 0.250000
vt 0.625000 0.500000
vt 0.375000 0.500000
vt 0.625000 0.750000
vt 0.375000 0.750000
vt 0.625000 1.000000
vt 0.375000 1.000000
vt 0.875000 0.000000
vt 0.875000 0.250000
vt 0.125000 0.000000
vt 0.125000 0.250000
vn -0.000176 0.795042 0.606554
vn -0.000176 0.795042 0.606554
vn -0.000176 0.795042 0.606554
vn -0.000176 0.795042 0.606554
vn 1.000000 0.000323 0.000000
vn 1.000000 0.000323 0.000000
vn 1.000000 0.000323 0.000000
vn 1.000000 0.000323 0.000000
vn 0.000176 -0.795042 -0.606554
vn 0.000176 -0.795042 -0.606554
vn 0.000176 -0.795042 -0.606554
vn 0.000176 -0.795042 -0.606554
vn -1.000000 -0.000323 0.000000
vn -1.000000 -0.000323 0.000000
vn -1.000000 -0.000323 0.000000
vn -1.000000 -0.000323 0.000000
vn 0.000166 -0.743157 0.669117
vn 0.000166 -0.743157 0.669117
vn 0.000166 -0.743157 0.669117
vn 0.000166 -0.743157 0.669117
vn -0.000165 0.743158 -0.669116
vn -0.000165 0.743158 -0.669116
vn -0.000165 0.743158 -0.669116
vn -0.000165 0.743158 -0.669116
vn 0.000000 0.000000 1.000000
vn 0.000000 0.000000 1.000000
vn 0.000000 0.000000 1.000000
vn 0.000000 0.000000 1.000000
vn 0.000000 1.000000 0.000000
vn 0.000000 1.000000 0.000000
vn 0.000000 1.000000 0.000000
vn 0.000000 1.000000 0.000000
vn 0.000000 0.000000 -1.000000
vn 0.000000 0.000000 -1.000000
vn 0.000000 0.000000 -1.000000
vn 0.000000 0.000000 -1.000000
vn 0.000000 -1.000000 0.000000
vn 0.000000 -1.000000 0.000000
vn 0.000000 -1.000000 0.000000
vn 0.000000 -1.000000 0.000000
vn 1.000000 0.000000 0.000000
vn 1.000000 0.000000 0.000000
vn 1.000000 0.000000 0.000000
vn 1.000000 0.000000 0.000000
vn -1.000000 0.000000 0.000000
vn -1.000000 0.000000 0.000000
vn -1.000000 0.000000 0.000000
vn -1.000000 0.000000 0.000000
vn -0.000176 0.795042 0.606554
vn -0.000176 0.795042 0.606554
vn -0.000176 0.795042 0.606554
vn -0.000176 0.795042 0.606554
vn 1.000000 0.000323 0.000000
vn 1.000000 0.000323 0.000000
vn 1.000000 0.000323 0.000000
vn 1.000000 0.000323 0.000000
vn 0.000176 -0.795042 -0.606555
vn 0.000176 -0.795042 -0.606555
vn 0.000176 -0.795042 -0.606555
vn 0.000176 -0.795042 -0.606555
vn -1.000000 -0.000323 0.000000
vn -1.000000 -0.000323 0.000000
vn -1.000000 -0.000323 0.000000
vn -1.000000 -0.000323 0.000000
vn 0.000166 -0.743158 0.669116
vn 0.000166 -0.743158 0.669116
vn 0.000166 -0.743158 0.669116
vn 0.000166 -0.743158 0.669116
vn -0.000165 0.743157 -0.669117
vn -0.000165 0.743158 -0.669116
vn -0.000165 0.743157 -0.669117
vn -0.000165 0.743158 -0.669116
vn 0.000000 0.000000 1.000000
vn 0.000000 0.000000 1.000000
vn 0.000000 0.000000 1.000000
vn 0.000000 0.000000 1.000000
vn 0.000000 1.000000 0.000000
vn 0.000000 1.000000 0.000000
vn 0.000000 1.000000 0.000000
vn 0.000000 1.000000 0.000000
vn 0.000000 0.000000 -1.000000
vn 0.000000 0.000000 -1.000000
vn 0.000000 0.000000 -1.000000
vn 0.000000 0.000000 -1.000000
vn 0.000000 -1.000000 0.000000
vn 0.000000 -1.000000 0.000000
vn 0.000000 -1.000000 0.000000
vn 0.000000 -1.000000 0.000000
vn 1.000000 0.000000 0.000000
vn 1.000000 0.000000 0.000000
vn 1.000000 0.000000 0.000000
vn 1.000000 0.000000 0.000000
vn -1.000000 0.000000 0.000000
vn -1.000000 0.000000 0.000000
vn -1.000000 0.000000 0.000000
vn -1.000000 0.000000 0.000000
vn 0.000000 0.000000 1.000000
vn 0.000000 0.000000 1.000000
vn 0.000000 0.000000 1.000000
vn 0.000000 0.000000 1.000000
vn 0.000000 1.000000 0.000000
vn 0.000000 1.000000 0.000000
vn 0.000000 1.000000 0.000000
vn 0.000000 1.000000 0.000000
vn 0.000000 0.000000 -1.000000
vn 0.000000 0.000000 -1.000000
vn 0.000000 0.000000 -1.000000
vn 0.000000 0.000000 -1.000000
vn 0.000000 -1.000000 0.000000
vn 0.000000 -1.000000 0.000000
vn 0.000000 -1.000000 0.000000
vn 0.000000 -1.000000 0.000000
vn 1.000000 0.000000 0.000000
vn 1.000000 0.000000 0.000000
vn 1.000000 0.000000 0.000000
vn 1.000000 0.000000 0.000000
vn -1.000000 0.000000 0.000000
vn -1.000000 0.000000 0.000000
vn -1.000000 0.000000 0.000000
vn -1.000000 0.000000 0.000000
vn 0.000000 0.000000 1.000000
vn 0.000000 0.000000 1.000000
vn 0.000000 0.000000 1.000000
vn 0.000000 0.000000 1.000000
vn 0.000000 1.000000 0.000000
vn 0.000000 1.000000 0.000000
vn 0.000000 1.000000 0.000000
vn 0.000000 1.000000 0.000000
vn 0.000000 0.000000 -1.000000
vn 0.000000 0.000000 -1.000000
vn 0.000000 0.000000 -1.000000
vn 0.000000 0.000000 -1.000000
vn 0.000000 -1.000000 0.000000
vn 0.000000 -1.000000 0.000000
vn 0.000000 -1.000000 0.000000
vn 0.000000 -1.000000 0.000000
vn 1.000000 0.000000 0.000000
vn 1.000000 0.000000 0.000000
vn 1.000000 0.000000 0.000000
vn 1.000000 0.000000 0.000000
vn -1.000000 0.000000 0.000000
vn -1.000000 0.000000 0.000000
vn -1.000000 0.000000 0.000000
vn -1.000000 0.000000 0.000000
s off
g left_arm worker polySurface1
usemtl worker2_initialShadingGroup
f 1/1/1 2/2/2 4/3/3 3/4/4
f 3/4/5 4/3/6 6/5/7 5/6/8
f 5/6/9 6/5/10 8/7/11 7/8/12
f 7/8/13 8/7/14 2/9/15 1/10/16
f 2/2/17 8/11/18 6/12/19 4/3/20
f 7/13/21 1/1/22 3/4/23 5/14/24
g body worker polySurface1
f 9/15/25 10/16/26 12/17/27 11/18/28
f 11/18/29 12/17/30 14/19/31 13/20/32
f 13/20/33 14/19/34 16/21/35 15/22/36
f 15/22/37 16/21/38 10/23/39 9/24/40
f 10/16/41 16/25/42 14/26/43 12/17/44
f 15/27/45 9/15/46 11/18/47 13/28/48
g right_arm worker polySurface1
f 17/29/49 18/30/50 20/31/51 19/32/52
f 19/32/53 20/31/54 22/33/55 21/34/56
f 21/34/57 22/33/58 24/35/59 23/36/60
f 23/36/61 24/35/62 18/37/63 17/38/64
f 18/30/65 24/39/66 22/40/67 20/31/68
f 23/41/69 17/29/70 19/32/71 21/42/72
g right_leg worker polySurface1
f 25/43/73 26/44/74 28/45/75 27/46/76
f 27/46/77 28/45/78 30/47/79 29/48/80
f 29/48/81 30/47/82 32/49/83 31/50/84
f 31/50/85 32/49/86 26/51/87 25/52/88
f 26/44/89 32/53/90 30/54/91 28/45/92
f 31/55/93 25/43/94 27/46/95 29/56/96
g left_leg worker polySurface1
f 33/57/97 34/58/98 36/59/99 35/60/100
f 35/60/101 36/59/102 38/61/103 37/62/104
f 37/62/105 38/61/106 40/63/107 39/64/108
f 39/64/109 40/63/110 34/65/111 33/66/112
f 34/58/113 40/67/114 38/68/115 36/59/116
f 39/69/117 33/57/118 35/60/119 37/70/120
g head worker polySurface1
f 41/71/121 42/72/122 44/73/123 43/74/124
f 43/74/125 44/73/126 46/75/127 45/76/128
f 45/76/129 46/75/130 48/77/131 47/78/132
f 47/78/133 48/77/134 42/79/135 41/80/136
f 42/72/137 48/81/138 46/82/139 44/73/140
f 47/83/141 41/71/142 43/74/143 45/84/144
